<?xml version="1.0" standalone="no"?>
<!DOCTYPE svg PUBLIC "-//W3C//DTD SVG 20010904//EN"
 "http://www.w3.org/TR/2001/REC-SVG-20010904/DTD/svg10.dtd">
<svg version="1.0" xmlns="http://www.w3.org/2000/svg"
 width="310.000000pt" height="40.000000pt" viewBox="0 0 310.000000 40.000000"
 preserveAspectRatio="xMidYMid meet">

<g transform="translate(0.000000,40.000000) scale(0.100000,-0.100000)"
fill="#000000" stroke="none">
<path d="M180 355 c-6 -8 -10 -22 -8 -32 4 -23 43 -29 51 -9 14 35 -21 67 -43
41z m35 -15 c3 -5 1 -10 -4 -10 -6 0 -11 5 -11 10 0 6 2 10 4 10 3 0 8 -4 11
-10z"/>
<path d="M117 334 c-4 -4 -7 -14 -7 -23 0 -11 3 -12 11 -4 6 6 10 16 7 23 -2
6 -7 8 -11 4z"/>
<path d="M245 330 c-3 -6 1 -7 9 -4 11 4 16 0 16 -11 0 -9 4 -14 10 -10 13 8
1 35 -15 35 -8 0 -17 -4 -20 -10z"/>
<path d="M340 330 c0 -5 5 -10 11 -10 5 0 7 5 4 10 -3 6 -8 10 -11 10 -2 0 -4
-4 -4 -10z"/>
<path d="M160 153 l0 -133 35 0 35 0 0 78 1 77 20 -27 c26 -36 35 -35 43 2 5
29 36 44 36 18 0 -10 3 -9 9 1 5 7 13 11 19 7 9 -5 52 50 52 66 0 3 -13 11
-29 18 -21 8 -35 9 -49 1 -12 -6 -29 -11 -40 -11 -11 0 -25 -7 -32 -15 -7 -9
-15 -13 -18 -10 -3 3 5 16 17 29 l23 24 -61 4 -61 3 0 -132z"/>
<path d="M434 263 c2 -13 14 -19 44 -21 l42 -3 0 -105 c0 -97 1 -104 20 -104
19 0 20 7 20 105 l0 105 40 0 c33 0 40 3 40 20 0 19 -7 20 -104 20 -94 0 -104
-2 -102 -17z"/>
<path d="M1430 155 c0 -118 1 -125 20 -125 19 0 20 7 20 125 0 118 -1 125 -20
125 -19 0 -20 -7 -20 -125z"/>
<path d="M1273 208 c-41 -11 -63 -42 -63 -91 0 -44 35 -86 72 -88 63 -3 106
14 88 36 -9 10 -18 11 -41 3 -23 -8 -35 -7 -54 6 -41 27 -29 36 45 36 67 0 70
1 70 24 0 30 -33 72 -62 78 -13 2 -37 1 -55 -4z m58 -38 c34 -19 21 -30 -33
-30 l-53 1 24 19 c27 23 35 24 62 10z"/>
<path d="M634 195 c-3 -6 -4 -45 -2 -86 2 -61 6 -74 21 -77 14 -3 17 4 17 42
0 72 13 94 57 98 26 2 38 8 38 18 0 19 -124 24 -131 5z"/>
<path d="M813 188 c-11 -13 -23 -31 -27 -42 -9 -27 12 -94 34 -106 26 -14 83
-13 98 2 10 10 15 10 21 -1 5 -8 16 -11 25 -8 23 9 23 165 0 174 -9 3 -20 0
-25 -8 -6 -11 -11 -11 -21 -1 -21 21 -82 15 -105 -10z m99 -25 c22 -20 24 -66
2 -87 -34 -35 -87 -8 -87 44 0 53 48 77 85 43z"/>
<path d="M1029 123 c31 -74 41 -88 61 -91 23 -2 29 6 62 88 36 89 36 90 14 90
-18 0 -27 -12 -47 -65 -21 -58 -39 -83 -39 -55 0 5 -9 34 -21 65 -17 45 -25
55 -44 55 l-23 0 37 -87z"/>
</g>
</svg>
