<?xml version="1.0" standalone="no"?>
<!DOCTYPE svg PUBLIC "-//W3C//DTD SVG 20010904//EN"
 "http://www.w3.org/TR/2001/REC-SVG-20010904/DTD/svg10.dtd">
<svg version="1.0" xmlns="http://www.w3.org/2000/svg"
 width="1222.000000pt" height="816.000000pt" viewBox="0 0 1222.000000 816.000000"
 preserveAspectRatio="xMidYMid meet">

<g transform="translate(0.000000,816.000000) scale(0.100000,-0.100000)"
fill="#000000" stroke="none">
<path d="M1781 5766 c-9 -11 -8 -21 6 -44 15 -24 22 -28 41 -21 28 11 37 32
22 58 -12 24 -52 28 -69 7z"/>
<path d="M1841 5674 l-23 -16 32 -33 33 -34 28 22 c35 26 36 40 4 61 -31 20
-45 20 -74 0z"/>
<path d="M1938 5591 l-23 -19 55 -16 c67 -20 70 -20 70 2 0 17 -21 32 -62 46
-9 3 -27 -3 -40 -13z"/>
<path d="M1531 5304 c7 -8 25 -22 39 -29 15 -8 43 -29 62 -47 53 -50 109 -93
148 -113 19 -9 56 -32 82 -51 25 -18 63 -42 85 -52 21 -11 62 -36 92 -56 29
-20 61 -36 70 -36 9 0 52 -18 95 -40 43 -22 83 -40 90 -40 7 0 48 -18 91 -40
43 -22 113 -53 154 -69 42 -16 106 -43 143 -60 37 -17 74 -31 83 -31 8 0 52
-18 97 -39 46 -22 101 -45 123 -51 22 -7 67 -25 100 -40 33 -15 78 -33 100
-40 22 -7 67 -25 100 -40 33 -15 84 -35 114 -45 29 -9 91 -35 137 -56 47 -22
101 -43 122 -48 20 -5 114 -42 207 -81 94 -40 204 -85 245 -102 41 -16 89 -42
105 -58 17 -15 44 -35 60 -44 17 -9 45 -28 64 -41 19 -14 42 -25 52 -25 11 0
19 -4 19 -9 0 -16 160 -112 196 -118 48 -8 42 2 -18 33 -29 15 -55 30 -58 33
-14 18 -62 41 -73 35 -7 -4 -9 -4 -5 1 4 4 -5 18 -20 29 -89 70 -202 184 -202
205 0 13 -77 51 -103 51 -13 0 -30 7 -37 15 -7 8 -30 20 -53 26 -22 6 -46 17
-54 25 -8 8 -19 12 -24 9 -5 -4 -9 -1 -9 4 0 6 -7 11 -15 11 -9 0 -37 11 -63
24 -65 33 -717 295 -787 317 -16 5 -49 18 -72 29 -24 11 -47 20 -53 20 -6 0
-18 4 -28 10 -9 5 -87 37 -172 71 -85 33 -177 70 -205 81 -27 11 -59 22 -70
25 -89 25 -515 224 -690 323 -134 76 -258 140 -270 140 -4 0 -2 -7 6 -16z"/>
<path d="M2982 5165 c-13 -28 -2 -34 18 -10 9 11 10 19 3 26 -6 6 -13 1 -21
-16z"/>
<path d="M3117 5123 c-11 -10 -8 -43 3 -43 6 0 10 4 10 9 0 5 3 16 6 25 6 16
-7 22 -19 9z"/>
<path d="M3240 5061 c-13 -26 -13 -31 4 -31 13 0 26 20 26 41 0 16 -19 10 -30
-10z"/>
<path d="M3381 5017 c-7 -9 -11 -24 -9 -34 3 -16 5 -15 17 5 15 29 10 50 -8
29z"/>
<path d="M3507 4963 c-10 -10 -8 -43 2 -43 9 0 21 24 21 41 0 11 -14 12 -23 2z"/>
<path d="M3635 4899 c-8 -23 -1 -34 14 -24 13 8 15 45 2 45 -5 0 -13 -9 -16
-21z"/>
<path d="M3773 4859 c-7 -7 -13 -22 -13 -33 0 -19 1 -19 16 -4 9 8 14 23 12
32 -2 14 -5 15 -15 5z"/>
<path d="M7540 4857 c-39 -15 -167 -82 -229 -121 -22 -14 -45 -26 -49 -26 -5
0 -40 -21 -78 -46 -38 -25 -81 -48 -97 -51 -15 -3 -29 -9 -32 -12 -4 -7 58
-50 133 -91 l42 -24 28 27 c15 15 33 27 39 27 6 0 26 17 43 38 18 20 47 46 65
57 17 11 45 32 61 47 16 15 62 55 102 89 45 38 72 68 70 78 -4 21 -52 25 -98
8z"/>
<path d="M3897 4803 c-4 -3 -7 -15 -7 -25 0 -26 24 -17 28 10 3 21 -8 29 -21
15z"/>
<path d="M4026 4744 c-10 -25 -7 -34 9 -34 8 0 15 4 15 9 0 5 3 16 6 25 4 10
1 16 -9 16 -8 0 -18 -7 -21 -16z"/>
<path d="M4154 4685 c-4 -14 -3 -29 0 -33 9 -8 26 18 26 41 0 26 -19 20 -26
-8z"/>
<path d="M4291 4642 c-14 -25 -14 -42 -1 -42 16 0 33 41 22 52 -7 7 -14 3 -21
-10z"/>
<path d="M4421 4592 c-14 -25 -14 -42 -1 -42 16 0 33 41 22 52 -7 7 -14 3 -21
-10z"/>
<path d="M4550 4531 c-17 -33 -11 -48 10 -22 11 13 20 27 20 32 0 16 -19 9
-30 -10z"/>
<path d="M4820 4440 c0 -5 5 -10 10 -10 6 0 10 5 10 10 0 6 -4 10 -10 10 -5 0
-10 -4 -10 -10z"/>
<path d="M5060 4295 c0 -8 5 -15 10 -15 6 0 10 7 10 15 0 8 -4 15 -10 15 -5 0
-10 -7 -10 -15z"/>
<path d="M5184 4265 c-6 -24 0 -44 10 -34 11 11 17 59 7 59 -6 0 -13 -11 -17
-25z"/>
<path d="M5311 4221 c-14 -26 -14 -44 1 -39 15 5 29 46 18 53 -5 3 -14 -3 -19
-14z"/>
<path d="M5430 4166 c-12 -34 -12 -36 0 -36 16 0 33 41 21 53 -7 7 -13 2 -21
-17z"/>
<path d="M5665 4069 c-4 -11 -4 -23 0 -27 7 -7 25 17 25 36 0 20 -18 14 -25
-9z"/>
<path d="M5805 4009 c-8 -23 -1 -34 14 -24 13 8 15 45 2 45 -5 0 -13 -9 -16
-21z"/>
<path d="M11153 4005 c-34 -12 -91 -35 -125 -52 -177 -86 -235 -113 -241 -113
-3 0 -44 -18 -91 -40 -47 -22 -89 -40 -95 -40 -10 0 -40 -12 -159 -66 -29 -13
-57 -24 -63 -24 -5 0 -22 -12 -37 -28 -15 -15 -47 -35 -72 -46 -25 -10 -56
-24 -70 -31 -14 -7 -43 -16 -65 -19 -57 -10 -139 -39 -218 -75 -37 -17 -69
-31 -72 -31 -2 0 -53 -22 -113 -50 -158 -72 -226 -84 -450 -77 -232 8 -516 26
-564 37 -21 4 -38 4 -38 0 0 -12 321 -169 570 -281 113 -50 293 -131 400 -179
285 -129 459 -204 601 -261 l127 -50 53 58 c30 32 68 72 85 89 34 36 84 109
84 123 0 8 39 53 114 131 18 19 91 100 161 180 70 80 143 161 160 180 80 86
133 143 165 182 41 48 116 131 180 199 25 26 66 71 93 99 26 27 47 54 47 59 0
5 6 14 14 21 8 6 13 17 10 24 -6 15 -73 50 -124 64 -19 6 -57 17 -85 26 -64
21 -105 19 -182 -9z"/>
<path d="M5935 3959 c-4 -11 -4 -23 0 -27 7 -7 25 17 25 36 0 20 -18 14 -25
-9z"/>
<path d="M6067 3923 c-11 -10 -8 -53 3 -53 6 0 10 6 10 14 0 8 3 21 6 30 6 16
-7 22 -19 9z"/>
<path d="M6192 3860 c-6 -11 -12 -24 -12 -30 0 -18 19 -11 31 11 14 28 -3 45
-19 19z"/>
<path d="M4780 3828 c0 -4 4 -8 9 -8 6 0 12 4 15 8 3 5 -1 9 -9 9 -8 0 -15 -4
-15 -9z"/>
<path d="M4816 3807 c3 -10 9 -15 12 -12 3 3 0 11 -7 18 -10 9 -11 8 -5 -6z"/>
<path d="M6317 3798 c-4 -12 -4 -24 -1 -27 6 -7 24 20 24 37 0 21 -17 13 -23
-10z"/>
<path d="M6445 3749 c-4 -11 -4 -23 0 -27 7 -7 25 17 25 36 0 20 -18 14 -25
-9z"/>
<path d="M6577 3713 c-11 -10 -8 -43 3 -43 6 0 10 4 10 9 0 5 3 16 6 25 6 16
-7 22 -19 9z"/>
<path d="M6701 3657 c-7 -9 -10 -25 -6 -34 6 -17 7 -17 16 0 6 10 9 25 7 34
-3 15 -4 15 -17 0z"/>
<path d="M6832 3608 c-14 -14 -16 -48 -2 -48 10 0 26 48 18 55 -2 3 -10 -1
-16 -7z"/>
<path d="M4105 3553 c-38 -69 -42 -96 -15 -123 14 -14 26 -18 31 -13 11 11 26
183 16 183 -3 0 -17 -21 -32 -47z"/>
<path d="M6950 3546 c-13 -35 -13 -36 4 -36 19 0 31 39 17 53 -7 7 -13 2 -21
-17z"/>
<path d="M7080 3500 c-8 -15 -9 -25 -2 -32 7 -7 14 -3 22 12 8 15 9 25 2 32
-7 7 -14 3 -22 -12z"/>
<path d="M5205 3483 c4 -10 12 -37 18 -61 13 -52 3 -65 -49 -66 -31 -2 -38 -6
-50 -34 -7 -18 -12 -32 -11 -33 1 0 13 -2 27 -4 56 -8 140 -62 140 -91 0 -8 5
-14 11 -14 5 0 7 -4 4 -10 -3 -5 -21 -10 -40 -10 -19 0 -37 5 -40 10 -3 6 -13
10 -21 10 -9 0 -35 14 -59 30 l-44 31 -25 -40 c-14 -22 -30 -42 -36 -46 -38
-24 37 -49 188 -62 44 -4 56 -2 67 13 9 13 24 18 49 16 44 -3 45 3 6 23 -34
18 -39 44 -12 68 24 22 34 21 81 -2 48 -25 162 -63 168 -57 10 10 -351 346
-372 346 -4 0 -4 -8 0 -17z"/>
<path d="M7205 3439 c-8 -23 -1 -34 14 -24 13 8 15 45 2 45 -5 0 -13 -9 -16
-21z"/>
<path d="M7337 3403 c-10 -10 -8 -43 2 -43 9 0 21 24 21 41 0 11 -14 12 -23 2z"/>
<path d="M7458 3335 c-6 -14 -8 -28 -4 -33 9 -8 36 26 36 45 0 22 -20 14 -32
-12z"/>
<path d="M7591 3286 c-13 -33 -9 -43 8 -22 7 8 11 23 8 33 -3 14 -6 12 -16
-11z"/>
<path d="M7715 3239 c-8 -23 -1 -34 14 -24 13 8 15 45 2 45 -5 0 -13 -9 -16
-21z"/>
<path d="M6260 3210 c17 -32 96 -80 158 -96 31 -8 109 -26 172 -39 63 -13 133
-30 155 -38 117 -44 233 -90 345 -136 69 -29 170 -69 225 -90 55 -22 125 -50
155 -63 30 -14 69 -28 85 -32 17 -4 44 -14 60 -21 39 -17 267 -90 331 -106 27
-6 54 -15 59 -20 10 -7 62 -19 112 -24 31 -3 159 -37 293 -79 47 -14 95 -26
108 -26 13 0 60 -8 105 -19 149 -34 201 -41 232 -32 l30 9 -40 3 c-22 1 -50 1
-62 0 -13 -1 -23 2 -23 6 0 4 -13 9 -28 10 -15 1 -41 9 -57 17 -17 9 -36 16
-42 16 -7 0 -39 9 -70 19 -55 18 -103 29 -165 37 -38 5 -157 39 -202 58 -21 9
-42 13 -47 10 -5 -3 -9 0 -9 6 0 7 -6 10 -14 7 -7 -3 -26 3 -42 14 -16 10 -37
19 -48 19 -10 0 -35 9 -55 19 -20 11 -85 38 -146 62 -60 23 -135 53 -165 66
-30 14 -68 31 -85 38 -131 58 -345 145 -366 149 -8 1 -30 9 -49 18 -74 33
-359 137 -430 157 -181 49 -241 64 -340 82 -139 25 -154 25 -140 -1z"/>
<path d="M7844 3186 c-8 -35 1 -44 16 -16 8 15 9 25 1 33 -7 7 -12 2 -17 -17z"/>
<path d="M7970 3131 c-6 -13 -6 -22 -1 -26 9 -5 31 24 31 39 0 14 -20 4 -30
-13z"/>
<path d="M4790 3125 c0 -11 83 -43 96 -38 7 2 23 -1 35 -7 25 -14 109 -19 109
-8 0 5 -6 8 -12 8 -10 0 -10 2 -1 8 7 4 9 12 5 18 -11 17 -41 24 -48 12 -5 -7
-2 -8 6 -3 9 5 11 4 6 -4 -6 -9 -11 -9 -21 -1 -8 7 -19 9 -24 5 -6 -3 -20 -1
-32 5 -14 8 -25 8 -31 2 -6 -6 -22 -7 -41 -1 -37 10 -47 11 -47 4z"/>
<path d="M8089 3079 c-8 -16 -8 -24 0 -32 14 -14 31 6 31 36 0 23 -17 22 -31
-4z"/>
<path d="M8211 3028 c-5 -13 -5 -27 0 -32 11 -12 24 0 34 32 5 16 2 22 -10 22
-8 0 -20 -10 -24 -22z"/>
<path d="M8346 2968 c-20 -28 -20 -38 -1 -38 8 0 17 11 21 25 9 35 -1 41 -20
13z"/>
<path d="M8470 2916 c-12 -34 -12 -36 0 -36 16 0 33 41 21 53 -7 7 -13 2 -21
-17z"/>
<path d="M8948 2473 c6 -2 18 -2 25 0 6 3 1 5 -13 5 -14 0 -19 -2 -12 -5z"/>
<path d="M8880 2380 c-23 -7 -23 -8 10 -10 19 -1 51 -4 70 -6 29 -3 32 -2 17
7 -26 15 -67 19 -97 9z"/>
<path d="M10020 2371 c0 -6 10 -17 22 -25 12 -9 19 -16 14 -16 -5 0 4 -10 20
-22 54 -42 59 -49 43 -59 -8 -5 -24 -7 -36 -4 -13 3 -23 2 -23 -3 0 -4 -12
-13 -27 -19 -27 -11 -27 -11 12 -12 23 -1 90 -7 150 -15 61 -8 146 -17 190
-19 l80 -5 -80 39 c-44 21 -85 38 -92 39 -6 0 -18 6 -25 13 -13 13 -93 58
-138 77 -14 6 -36 17 -50 25 -29 17 -60 20 -60 6z"/>
<path d="M9075 2360 c-3 -5 -1 -10 4 -10 6 0 11 5 11 10 0 6 -2 10 -4 10 -3 0
-8 -4 -11 -10z"/>
<path d="M9028 2353 c6 -2 18 -2 25 0 6 3 1 5 -13 5 -14 0 -19 -2 -12 -5z"/>
<path d="M9358 2293 c6 -2 18 -2 25 0 6 3 1 5 -13 5 -14 0 -19 -2 -12 -5z"/>
<path d="M9538 2273 c7 -3 16 -2 19 1 4 3 -2 6 -13 5 -11 0 -14 -3 -6 -6z"/>
<path d="M7615 2243 c-27 -8 -126 -39 -220 -68 -204 -66 -388 -113 -470 -122
-32 -3 -70 -12 -83 -19 -22 -11 -19 -14 60 -54 46 -23 97 -50 114 -61 46 -28
142 -59 183 -59 42 0 125 24 157 45 36 23 95 57 144 81 26 12 52 29 59 38 7 9
17 16 21 16 11 0 108 60 151 93 20 15 40 27 45 27 20 0 67 47 59 59 -24 39
-129 51 -220 24z"/>
<path d="M9988 2233 c7 -3 16 -2 19 1 4 3 -2 6 -13 5 -11 0 -14 -3 -6 -6z"/>
</g>
</svg>
